<svg width="84" height="84" viewBox="0 0 84 84" fill="none" xmlns="http://www.w3.org/2000/svg">
<path d="M0 73.1689C0 79.1513 4.84936 84 10.8311 84H73.1686C79.1513 84 84 79.1506 84 73.1689V10.8314C84 4.8487 79.1506 0 73.1689 0H10.8314C4.8487 0 0 4.84936 0 10.8311V73.1686V73.1689Z" fill="#563D7C"/>
<path d="M34.8397 37.1562V25.2607H45.3105C46.308 25.2607 47.2694 25.3437 48.1954 25.5101C49.1214 25.6761 49.9407 25.9727 50.6531 26.4003C51.3651 26.8278 51.9351 27.4214 52.3626 28.181C52.7898 28.941 53.0038 29.9145 53.0038 31.1013C53.0038 33.2384 52.3626 34.7819 51.0803 35.7315C49.7983 36.6814 48.16 37.1562 46.1653 37.1562H34.8397ZM23.6562 16.5703V67.4297H48.3024C50.5819 67.4297 52.802 67.1449 54.9627 66.5749C57.1234 66.005 59.0465 65.1266 60.7324 63.9394C62.418 62.7523 63.7597 61.2206 64.7569 59.345C65.7544 57.4691 66.2528 55.249 66.2528 52.6847C66.2528 49.5029 65.481 46.7844 63.9379 44.5289C62.3944 42.273 60.0555 40.6941 56.9212 39.7917C59.2007 38.6997 60.9224 37.2986 62.0859 35.5891C63.2491 33.8796 63.8309 31.7428 63.8309 29.1782C63.8309 26.8039 63.4391 24.8095 62.6556 23.1948C61.872 21.5805 60.7679 20.2863 59.3431 19.3128C57.9187 18.3392 56.2092 17.6387 54.2145 17.2115C52.2202 16.7839 50.0119 16.5703 47.59 16.5703H23.6562ZM34.8397 58.7393V44.7779H47.0201C49.442 44.7779 51.3891 45.3357 52.8613 46.452C54.3333 47.568 55.0696 49.4317 55.0696 52.0436C55.0696 53.3735 54.8439 54.4655 54.3927 55.3202C53.9415 56.175 53.3361 56.8519 52.5762 57.3503C51.8166 57.8491 50.9379 58.2051 49.9407 58.419C48.9432 58.6323 47.8988 58.7393 46.8065 58.7393H34.8397Z" fill="white"/>
</svg>
