<svg width="25" height="25" viewBox="0 0 25 25" fill="none" xmlns="http://www.w3.org/2000/svg">
<path d="M24.8334 8.07133C24.8334 8.07008 24.8321 8.07008 24.8334 8.07133L24.8296 8.06632L24.8284 8.06507V8.06382C24.7508 7.94958 24.6507 7.85241 24.5342 7.77829L13.0627 0.164278C12.8949 0.0570019 12.6998 0 12.5007 0C12.3015 0 12.1064 0.0570019 11.9386 0.164278L0.464606 7.78205C0.319725 7.87211 0.200738 7.99831 0.119319 8.14826C0.0379006 8.29821 -0.00315222 8.46676 0.000188795 8.63737V16.3516C-0.00295977 16.5508 0.0542041 16.7464 0.164175 16.9126V16.9139L0.166678 16.9164L0.179196 16.9351V16.9376H0.180448L0.1817 16.9389L0.182951 16.9402C0.261815 17.0504 0.358203 17.1405 0.465858 17.2094L11.9386 24.8259C12.1035 24.9396 12.2991 25.0003 12.4994 25C12.7006 25.0011 12.8972 24.9403 13.0627 24.8259L24.5354 17.2094C24.68 17.1184 24.7987 16.9916 24.88 16.8414C24.9614 16.6911 25.0027 16.5224 24.9999 16.3516V8.63737C25.003 8.43618 24.9449 8.23878 24.8334 8.07133ZM13.4958 2.84671L22.1996 8.6236L18.2151 11.2685L13.4946 8.09262V2.84671H13.4958ZM11.503 2.84671V8.09262L6.78244 11.2685L2.80046 8.62485L11.503 2.84671ZM1.99556 10.4833L4.99361 12.4744L1.99556 14.4919V10.4833ZM11.503 22.1435L2.79045 16.3616L6.78995 13.6691L11.503 16.7974V22.1435ZM12.4981 15.0642L8.58252 12.4619L12.4981 9.82581L16.4175 12.4619L12.4981 15.0642ZM13.4958 22.1435V16.7961L18.2101 13.6679L22.2071 16.3603L13.4958 22.1435ZM23.0058 14.4919L20.0064 12.4744L23.0058 10.4833V14.4919Z" fill="#E5E5E5"/>
</svg>
