<svg width="88" height="88" viewBox="0 0 88 88" fill="none" xmlns="http://www.w3.org/2000/svg">
<path d="M16.2312 74.8027L10.0547 5.5H77.9467L71.7619 74.7917L43.9594 82.5L16.2312 74.8027Z" fill="#1572B6"/>
<path d="M44 76.6097L66.4675 70.381L71.753 11.168H44V76.6097Z" fill="#33A9DC"/>
<path d="M44 36.2753H55.2475L56.023 27.5715H44V19.0713H65.3125L65.109 21.351L63.0217 44.7755H44V36.2753Z" fill="white"/>
<path d="M44.0524 58.3497L44.0139 58.3607L34.5484 55.8032L33.9434 49.0244H25.4102L26.6009 62.3702L44.0112 67.2047L44.0524 67.1937V58.3497Z" fill="#EBEBEB"/>
<path d="M54.5237 44.415L53.5007 55.7973L44.0215 58.3548V67.1988L61.4455 62.3698L61.5747 60.9343L63.0515 44.415H54.5237Z" fill="white"/>
<path d="M44.0296 19.0713V27.5715H23.4981L23.3276 25.6603L22.9398 21.351L22.7363 19.0713H44.0296Z" fill="#EBEBEB"/>
<path d="M44.0008 36.2754V44.7756H34.6535L34.483 42.8644L34.098 38.5551L33.8945 36.2754H44.0008Z" fill="#EBEBEB"/>
</svg>
