<svg width="84" height="84" viewBox="0 0 84 84" fill="none" xmlns="http://www.w3.org/2000/svg">
<path d="M56 56C63.732 56 70 49.732 70 42C70 34.268 63.732 28 56 28C48.268 28 42 34.268 42 42C42 49.732 48.268 56 56 56Z" fill="#19BCFE"/>
<path fill-rule="evenodd" clip-rule="evenodd" d="M28 84C31.713 84 35.274 82.525 37.8995 79.8995C40.525 77.274 42 73.713 42 70V56H28C24.287 56 20.726 57.475 18.1005 60.1005C15.475 62.726 14 66.287 14 70C14 73.713 15.475 77.274 18.1005 79.8995C20.726 82.525 24.287 84 28 84Z" fill="#09CF83"/>
<path fill-rule="evenodd" clip-rule="evenodd" d="M28 56H42V28H28C24.287 28 20.726 29.475 18.1005 32.1005C15.475 34.726 14 38.287 14 42C14 45.713 15.475 49.274 18.1005 51.8995C20.726 54.525 24.287 56 28 56Z" fill="#A259FF"/>
<path fill-rule="evenodd" clip-rule="evenodd" d="M28 28H42V0H28C24.287 0 20.726 1.475 18.1005 4.10051C15.475 6.72601 14 10.287 14 14C14 17.713 15.475 21.274 18.1005 23.8995C20.726 26.525 24.287 28 28 28Z" fill="#F24E1E"/>
<path fill-rule="evenodd" clip-rule="evenodd" d="M56 28H42V0H56C59.713 0 63.274 1.475 65.8995 4.10051C68.525 6.72601 70 10.287 70 14C70 17.713 68.525 21.274 65.8995 23.8995C63.274 26.525 59.713 28 56 28Z" fill="#FF7262"/>
</svg>
