<svg width="87" height="88" viewBox="0 0 87 88" fill="none" xmlns="http://www.w3.org/2000/svg">
<path d="M68.2758 67.8074C68.2758 72.5247 57.3328 76.3257 43.841 76.3257C30.3492 76.3257 19.4062 72.4908 19.4062 67.8074C19.4062 63.0901 30.3492 59.2891 43.841 59.2891C57.3328 59.2891 68.2758 63.0901 68.2758 67.8074Z" fill="#9EDCF2"/>
<path d="M68.2758 67.8074C68.2758 72.5247 57.3328 76.3257 43.841 76.3257C30.3492 76.3257 19.4062 72.4908 19.4062 67.8074C19.4062 63.0901 30.3492 59.2891 43.841 59.2891C57.3328 59.2891 68.2758 63.0901 68.2758 67.8074Z" fill="#7DBCE7"/>
<path d="M15.9393 42.7275L15.2256 45.171C15.2256 45.171 15.0557 46.0534 15.8713 46.2231C16.7549 46.1892 16.687 45.3747 16.619 45.1371L15.9393 42.7275Z" fill="#9EDCF2"/>
<path d="M86.932 32.4443L87 32.1388C79.8293 30.7135 72.4887 30.6795 68.0367 30.8832C68.7504 28.27 68.9883 25.2156 68.9883 21.8558C68.9883 17.0027 67.1531 13.1338 64.2305 10.2152C64.7402 8.55226 65.4199 4.85307 63.5508 0.135756C63.5508 0.135756 60.2203 -0.916307 52.6418 4.14038C49.6852 3.39376 46.5246 3.02045 43.3641 3.02045C39.8977 3.02045 36.3973 3.46163 33.1008 4.34401C25.2844 -0.984182 21.852 0.101819 21.852 0.101819C19.609 5.70151 21.0023 9.87583 21.4102 10.894C18.7594 13.7447 17.1621 17.376 17.1621 21.8218C17.1621 25.1817 17.5359 28.2021 18.4875 30.8153C14.0016 30.6456 6.93281 30.7135 0 32.1049L0.0679687 32.4103C7.00078 31.0189 14.1375 30.985 18.5895 31.1547C18.7934 31.6977 19.0312 32.2407 19.2691 32.7497C14.8512 32.8855 7.34063 33.4624 0.135937 35.4987L0.237891 35.8041C7.51055 33.7678 15.0891 33.2248 19.473 33.0891C22.1238 37.9761 27.2895 41.1662 36.5332 42.1504C35.2078 43.0328 33.8824 44.526 33.3387 47.0714C31.5375 47.9198 25.8961 50.0239 22.4977 44.1867C22.4977 44.1867 20.5945 40.725 16.9582 40.4535C16.9582 40.4535 13.4238 40.3857 16.7203 42.6595C16.7203 42.6595 19.0652 43.7794 20.6965 47.9537C20.6965 47.9537 22.8375 55.0806 33.0668 52.7729V60.0694C33.0668 60.0694 32.8629 62.6826 30.45 63.5311C30.45 63.5311 29.0227 64.5153 30.552 65.0583C30.552 65.0583 37.1789 65.6012 37.1789 60.1712V52.162C37.1789 52.162 36.907 48.9719 38.4703 47.8859V61.0536C38.4703 61.0536 38.3684 64.2098 36.7371 65.3976C36.7371 65.3976 35.6496 67.3321 38.0285 66.823C38.0285 66.823 42.5824 66.1782 42.7863 60.85L42.8883 47.5125H43.9758L44.0777 60.85C44.2816 66.1442 48.8355 66.823 48.8355 66.823C51.2145 67.366 50.127 65.3976 50.127 65.3976C48.4957 64.2098 48.3937 61.0536 48.3937 61.0536V47.9877C49.957 49.2094 49.6852 52.162 49.6852 52.162V60.1712C49.6852 65.6012 56.3121 65.0583 56.3121 65.0583C57.8414 64.5153 56.4141 63.5311 56.4141 63.5311C54.0352 62.6487 53.7973 60.0694 53.7973 60.0694V49.5488C53.7973 45.4424 52.0641 43.2704 50.3648 42.1504C60.2203 41.1662 64.9441 38.01 67.1191 33.0552C71.4352 33.157 79.2176 33.7 86.6262 35.8041L86.7281 35.4987C79.3535 33.4285 71.6391 32.8855 67.2551 32.7497C67.459 32.2407 67.6289 31.7316 67.7988 31.1886C72.3527 31.0189 79.7273 31.0189 86.932 32.4443Z" fill="#010101"/>
<path d="M59.3379 21.618C61.4449 23.5524 62.7024 25.8602 62.7024 28.3376C62.7024 40.0121 54.0023 40.3176 43.2633 40.3176C32.5242 40.3176 23.8242 38.6886 23.8242 28.3376C23.8242 25.8602 25.0477 23.5524 27.1547 21.6519C30.6551 18.4618 36.5684 20.1587 43.2633 20.1587C49.9582 20.1587 55.8375 18.4279 59.3379 21.618Z" fill="#F5CCB3"/>
<path d="M36.8051 28.9487C36.8051 32.1727 35.0039 34.752 32.7609 34.752C30.518 34.752 28.7168 32.1388 28.7168 28.9487C28.7168 25.7246 30.518 23.1453 32.7609 23.1453C35.0039 23.1114 36.8051 25.7246 36.8051 28.9487Z" fill="white"/>
<path d="M35.5141 29.0168C35.5141 31.1549 34.2906 32.8857 32.8293 32.8857C31.334 32.8857 30.1445 31.1549 30.1445 29.0168C30.1445 26.8788 31.368 25.1479 32.8293 25.1479C34.2906 25.1479 35.5141 26.8788 35.5141 29.0168Z" fill="#AF5C51"/>
<path d="M58.5199 28.9487C58.5199 32.1727 56.7188 34.752 54.4758 34.752C52.2328 34.752 50.4316 32.1388 50.4316 28.9487C50.4316 25.7246 52.2328 23.1453 54.4758 23.1453C56.6848 23.1114 58.5199 25.7246 58.5199 28.9487Z" fill="white"/>
<path d="M57.1957 29.0168C57.1957 31.1549 55.9723 32.8857 54.5109 32.8857C53.0156 32.8857 51.8262 31.1549 51.8262 29.0168C51.8262 26.8788 53.0496 25.1479 54.5109 25.1479C56.0062 25.1479 57.1957 26.8788 57.1957 29.0168Z" fill="#AF5C51"/>
<path d="M44.3496 34.107C44.3496 34.65 43.9078 35.1251 43.3301 35.1251C42.7863 35.1251 42.3105 34.6839 42.3105 34.107C42.3105 33.5301 42.7523 33.0889 43.3301 33.0889C43.8738 33.0889 44.3496 33.5301 44.3496 34.107Z" fill="#AF5C51"/>
<path d="M40.9861 36.6526C40.9182 36.4829 41.0201 36.3133 41.19 36.2454C41.36 36.1775 41.5299 36.2793 41.5979 36.449C41.8697 37.1956 42.5494 37.6708 43.3311 37.6708C44.1127 37.6708 44.7924 37.1617 45.0643 36.449C45.1322 36.2793 45.3021 36.1775 45.4721 36.2454C45.642 36.3133 45.7439 36.4829 45.676 36.6526C45.3361 37.6368 44.3846 38.3156 43.3311 38.3156C42.2775 38.3156 41.326 37.6368 40.9861 36.6526Z" fill="#AF5C51"/>
<path d="M18.5211 41.2681C18.5211 41.5396 18.2152 41.7432 17.8074 41.7432C17.4336 41.7432 17.0938 41.5396 17.0938 41.2681C17.0938 40.9966 17.3996 40.793 17.8074 40.793C18.2152 40.793 18.5211 40.9966 18.5211 41.2681Z" fill="#C4E5D9"/>
<path d="M20.4937 42.354C20.4937 42.6255 20.1879 42.8292 19.7801 42.8292C19.4063 42.8292 19.0664 42.6255 19.0664 42.354C19.0664 42.0825 19.3723 41.8789 19.7801 41.8789C20.1879 41.8789 20.4937 42.0825 20.4937 42.354Z" fill="#C4E5D9"/>
<path d="M21.6832 43.7796C21.6832 44.0511 21.3773 44.2548 20.9695 44.2548C20.5957 44.2548 20.2559 44.0511 20.2559 43.7796C20.2559 43.5081 20.5617 43.3045 20.9695 43.3045C21.3773 43.2706 21.6832 43.5081 21.6832 43.7796Z" fill="#C4E5D9"/>
<path d="M22.7691 45.4085C22.7691 45.6801 22.4633 45.8837 22.0555 45.8837C21.6816 45.8837 21.3418 45.6801 21.3418 45.4085C21.3418 45.137 21.6477 44.9334 22.0555 44.9334C22.4633 44.8995 22.7691 45.137 22.7691 45.4085Z" fill="#C4E5D9"/>
<path d="M23.9586 46.9014C23.9586 47.1729 23.6527 47.3765 23.2449 47.3765C22.8711 47.3765 22.5312 47.1729 22.5312 46.9014C22.5312 46.6299 22.8371 46.4263 23.2449 46.4263C23.6527 46.4263 23.9586 46.6299 23.9586 46.9014Z" fill="#C4E5D9"/>
<path d="M25.5914 48.2254C25.5914 48.4969 25.2855 48.7006 24.8777 48.7006C24.5039 48.7006 24.1641 48.4969 24.1641 48.2254C24.1641 47.9539 24.4699 47.7503 24.8777 47.7503C25.2855 47.7164 25.5914 47.9539 25.5914 48.2254Z" fill="#C4E5D9"/>
<path d="M27.8668 49.0738C27.8668 49.3453 27.5609 49.5489 27.1531 49.5489C26.7793 49.5489 26.4395 49.3453 26.4395 49.0738C26.4395 48.8023 26.7453 48.5986 27.1531 48.5986C27.5609 48.5986 27.8668 48.8023 27.8668 49.0738Z" fill="#C4E5D9"/>
<path d="M30.1441 49.0738C30.1441 49.3453 29.8383 49.5489 29.4305 49.5489C29.0566 49.5489 28.7168 49.3453 28.7168 49.0738C28.7168 48.8023 29.0227 48.5986 29.4305 48.5986C29.8383 48.5986 30.1441 48.8023 30.1441 49.0738Z" fill="#C4E5D9"/>
<path d="M32.4547 48.7002C32.4547 48.9717 32.1488 49.1753 31.741 49.1753C31.3672 49.1753 31.0273 48.9717 31.0273 48.7002C31.0273 48.4287 31.3332 48.2251 31.741 48.2251C32.1148 48.2251 32.4547 48.4287 32.4547 48.7002Z" fill="#C4E5D9"/>
</svg>
