<svg width="89" height="88" viewBox="0 0 89 88" fill="none" xmlns="http://www.w3.org/2000/svg">
<path d="M16.8882 74.8027L10.709 5.5H78.6065L72.419 74.7917L44.6165 82.5L16.8882 74.8027Z" fill="#E44F26"/>
<path d="M44.6582 76.6097L67.1257 70.381L72.4112 11.168H44.6582V76.6097Z" fill="#F1662A"/>
<path d="M44.6582 36.869H33.4107L32.6352 28.1653H44.6582V19.665H23.3457L23.5492 21.9475L25.6365 45.3693H44.6582V36.869Z" fill="#EBEBEB"/>
<path d="M44.6579 58.9436L44.6194 58.9546L35.1539 56.3998L34.5489 49.6211H26.0156L27.2064 62.9641L44.6194 67.7986L44.6579 67.7876V58.9436Z" fill="#EBEBEB"/>
<path d="M44.6289 36.8691V45.3694H55.0954L54.1109 56.3941L44.6289 58.9516V67.7956L62.0557 62.9639L62.1822 61.5284L64.1787 39.1516L64.3877 36.8691H44.6289Z" fill="white"/>
<path d="M44.6289 19.665V28.1653H65.1604L65.3309 26.2568L65.7187 21.9475L65.9222 19.665H44.6289Z" fill="white"/>
</svg>
