<svg width="77" height="77" viewBox="0 0 77 77" fill="none" xmlns="http://www.w3.org/2000/svg">
<path d="M0 0H77V77H0V0Z" fill="#F7DF1E"/>
<path d="M20.2464 64.3468L26.1387 60.7807C27.2757 62.7963 28.3097 64.5017 30.7903 64.5017C33.168 64.5017 34.6674 63.5717 34.6674 59.9539V35.3506H41.9033V60.0562C41.9033 67.5507 37.51 70.9622 31.1004 70.9622C25.3119 70.9622 21.9518 67.9643 20.2461 64.3462" fill="black"/>
<path d="M45.8343 63.5712L51.726 60.16C53.2771 62.6929 55.293 64.5535 58.859 64.5535C61.8575 64.5535 63.7693 63.0545 63.7693 60.9869C63.7693 58.506 61.8052 57.6272 58.4972 56.1804L56.6886 55.4044C51.4679 53.1825 48.005 50.3913 48.005 44.499C48.005 39.0717 52.1399 34.9365 58.6009 34.9365C63.2011 34.9365 66.5091 36.5391 68.8865 40.7257L63.2522 44.3441C62.0115 42.1216 60.6682 41.243 58.6006 41.243C56.4813 41.243 55.1374 42.5869 55.1374 44.3441C55.1374 46.5148 56.4813 47.394 59.5824 48.7379L61.3913 49.513C67.5423 52.1493 71.0052 54.8368 71.0052 60.8837C71.0052 67.3968 65.8883 70.9629 59.0139 70.9629C52.2948 70.9629 47.953 67.7584 45.834 63.5715" fill="black"/>
</svg>
