<svg width="25" height="22" viewBox="0 0 25 22" fill="none" xmlns="http://www.w3.org/2000/svg">
<path d="M3.14643 7.57503e-07C2.73345 -0.000261975 2.32445 0.0678224 1.9428 0.200365C1.56115 0.332907 1.21432 0.527311 0.922133 0.772471C0.629944 1.01763 0.398118 1.30874 0.239896 1.62918C0.0816736 1.94961 0.000156255 2.2931 0 2.64C0 4.1 1.40833 5.31 3.14286 5.31C4.87976 5.31 6.28929 4.1 6.28929 2.642C6.2896 2.29514 6.20854 1.95163 6.05073 1.6311C5.89293 1.31057 5.66148 1.0193 5.36961 0.773946C5.07773 0.528587 4.73116 0.333947 4.3497 0.20115C3.96823 0.0683523 3.55935 6.57968e-07 3.14643 7.57503e-07ZM18.494 7C15.8524 7 14.3417 8.16 13.6155 9.314H13.5393V7.311H8.33333V22H13.7583V14.729C13.7583 12.813 13.9298 10.961 16.7524 10.961C19.5345 10.961 19.575 13.146 19.575 14.85V22H25V13.932C25 9.984 23.9893 7 18.494 7ZM0.432143 7.31V22H5.86071V7.31H0.432143Z" fill="#E5E5E5"/>
</svg>
