<svg xmlns="http://www.w3.org/2000/svg" width="22" height="22" viewBox="0 0 496 496"><g><path d="M496 369.6c0 27.2-21.6 48.8-48 48.8H48c-26.4 0-48-21.6-48-48.8V126.4c0-27.2 21.6-48.8 48-48.8h400c26.4 0 48 21.6 48 48.8v243.2z" style="" fill="#cc0001" data-original="#cc0001"></path><path d="M48 77.6h400c26.4 0 48 21.6 48 48.8v243.2c0 27.2-21.6 48.8-48 48.8" style="" fill="#b21010" data-original="#b21010"></path><path d="M496 369.6c0 27.2-21.6 48.8-48 48.8H48c-26.4 0-48-21.6-48-48.8" style="" fill="#bc0a0a" data-original="#bc0a0a"></path><path d="M48 77.6h400c26.4 0 48 21.6 48 48.8v88.8" style="" fill="#930606" data-original="#930606"></path><path d="M0 233.6h496v28.8H0z" style="" fill="#ffffff" data-original="#ffffff"></path><path d="M264.8 262.4H496v-28.8H231.2z" style="" fill="#dddbdb" data-original="#dddbdb"></path><path d="M0 296h496v28.8H0z" style="" fill="#ffffff" data-original="#ffffff"></path><path d="M337.6 324.8H496V296H304.8z" style="" fill="#dddbdb" data-original="#dddbdb"></path><path d="M0 358.4v11.2c0 6.4.8 12 3.2 16.8h489.6c1.6-5.6 3.2-11.2 3.2-16.8v-11.2H0z" style="" fill="#ffffff" data-original="#ffffff"></path><path d="M411.2 387.2h81.6c.8-2.4 1.6-5.6 2.4-8 .8-3.2.8-6.4.8-9.6v-11.2H377.6l33.6 28.8z" style="" fill="#dddbdb" data-original="#dddbdb"></path><path d="M0 126.4v11.2h496v-11.2c0-6.4-.8-12-3.2-16.8H3.2C.8 114.4 0 120 0 126.4z" style="" fill="#ffffff" data-original="#ffffff"></path><path d="M495.2 117.6c-.8-3.2-1.6-5.6-2.4-8.8h-408l33.6 28.8H496v-11.2c0-3.2 0-6.4-.8-8.8z" style="" fill="#dddbdb" data-original="#dddbdb"></path><path d="M0 171.2h496V200H0z" style="" fill="#ffffff" data-original="#ffffff"></path><path d="M191.2 200H496v-28.8H158.4z" style="" fill="#dddbdb" data-original="#dddbdb"></path><path d="M155.2 233.6v-156H48c-26.4 0-48 21.6-48 48.8v107.2h155.2z" style="" fill="#384da0" data-original="#384da0"></path><path d="M155.2 77.6H48l107.2 91.2z" style="" fill="#233a84" data-original="#233a84"></path><path d="M60.8 116c-21.6 0-40 17.6-40 40s17.6 40 40 40c8 0 15.2-2.4 21.6-6.4-4 1.6-7.2 1.6-11.2 1.6-19.2 0-35.2-16-35.2-35.2 0-19.2 16-35.2 35.2-35.2 4 0 8.8.8 12 2.4-6.4-4.8-13.6-7.2-22.4-7.2z" style="" fill="#ffcc00" data-original="#ffcc00"></path><path d="m127.2 176-16.8-8.8 4.8 17.6-11.2-14.4-3.2 18.4-3.2-18.4-11.2 15.2 4.8-17.6-16.8 8 12.8-14.4-19.2.8 17.6-7.2L68 148l19.2.8-12.8-14.4 16.8 8.8-4.8-17.6 11.2 15.2 3.2-18.4 3.2 18.4 11.2-15.2-4.8 18.4 16.8-8.8-12.8 14.4 19.2-.8L116 156l17.6 7.2-19.2-.8 12.8 13.6z" style="" fill="#ffcc00" data-original="#ffcc00"></path></g></svg>