<svg xmlns="http://www.w3.org/2000/svg" width="20" height="20" viewBox="0 0 496 496"><g><path d="M160 80h176v336H160z" style="" fill="#ebf7f7" data-original="#ebf7f7" class=""></path><path d="M160 80H48C21.6 80 0 99.2 0 126.4v243.2C0 396.8 21.6 416 48 416h112V80zM448 80H336v336h112c26.4 0 48-19.2 48-46.4V126.4c0-27.2-21.6-46.4-48-46.4z" style="" fill="#589f58" data-original="#589f58"></path><path d="M448 80H336v240.8L446.4 416c26.4 0 49.6-19.2 49.6-46.4V126.4c0-27.2-21.6-46.4-48-46.4z" style="" fill="#479347" data-original="#479347"></path><path d="M336 320.8V80H160v95.2z" style="" fill="#e2f2f1" data-original="#e2f2f1" class=""></path><path d="M160 80H48l112 95.2z" style="" fill="#479347" data-original="#479347"></path><path d="M336 416h112c26.4 0 48-16 48-48H336v48z" style="" fill="#398439" data-original="#398439"></path><path d="M160 368h176v48H160z" style="" fill="#d6eae8" data-original="#d6eae8" class=""></path><path d="M0 368c0 32 21.6 48 48 48h112v-48H0zM448 80H336v84.8l160 49.6v-88c0-27.2-21.6-46.4-48-46.4z" style="" fill="#398439" data-original="#398439"></path><path d="M336 164.8V80H160v32.8z" style="" fill="#d6eae8" data-original="#d6eae8" class=""></path><path d="M160 80H48l112 32.8z" style="" fill="#398439" data-original="#398439"></path></g></svg>