<svg width="48" height="48" viewBox="0 0 48 48" fill="none" xmlns="http://www.w3.org/2000/svg">
<path d="M18.3038 43.6501L13.6912 45.6901L4.03125 23.8388L8.64375 21.7988L18.3038 43.6501Z" fill="url(#paint0_linear)"/>
<path d="M5.63281 25.9274C5.80156 25.5674 6.02656 25.3199 6.26281 25.1099C6.50281 24.9037 6.76156 24.7424 7.03531 24.6187C7.31624 24.493 7.61466 24.4108 7.92031 24.3749C8.23531 24.3412 8.56906 24.3449 8.94781 24.4612C8.77906 24.8249 8.55781 25.0687 8.31781 25.2824C8.08446 25.4832 7.82293 25.6487 7.54156 25.7737C7.25985 25.8964 6.96169 25.9773 6.65656 26.0137C6.34906 26.0474 6.01531 26.0474 5.63281 25.9274Z" fill="#FFC107"/>
<path d="M8.2168 31.7663C8.38555 31.4063 8.61055 31.1588 8.8468 30.9488C9.0868 30.7425 9.34555 30.5813 9.6193 30.4575C9.90023 30.3319 10.1986 30.2497 10.5043 30.2138C10.8193 30.18 11.153 30.1838 11.5318 30.3C11.363 30.6638 11.1418 30.9075 10.9018 31.1213C10.6684 31.3221 10.4069 31.4876 10.1255 31.6125C9.84383 31.7353 9.54567 31.8161 9.24055 31.8525C8.9293 31.8863 8.5993 31.8825 8.2168 31.7663Z" fill="#FFC107"/>
<path d="M6.49414 27.8737C6.66289 27.5137 6.88789 27.2662 7.12414 27.0562C7.36414 26.85 7.62289 26.6887 7.89664 26.565C8.17757 26.4393 8.47598 26.3571 8.78164 26.3212C9.09664 26.2875 9.43039 26.2912 9.80914 26.4075C9.64039 26.7712 9.41914 27.015 9.17914 27.2287C8.94579 27.4295 8.68426 27.595 8.40289 27.72C8.12118 27.8427 7.82302 27.9236 7.51789 27.96C7.20664 27.9937 6.87664 27.99 6.49414 27.8737Z" fill="#FFC107"/>
<path d="M9.9375 35.6589C10.1063 35.2989 10.3313 35.0514 10.5675 34.8414C10.8075 34.6351 11.0663 34.4739 11.34 34.3501C11.6209 34.2244 11.9193 34.1423 12.225 34.1064C12.54 34.0726 12.87 34.0764 13.2525 34.1926C13.0838 34.5564 12.8625 34.8001 12.6225 35.0139C12.3891 35.2147 12.1276 35.3802 11.8463 35.5051C11.5645 35.6279 11.2664 35.7087 10.9612 35.7451C10.65 35.7789 10.32 35.7751 9.9375 35.6589Z" fill="#FFC107"/>
<path d="M9.07422 33.7126C9.24297 33.3526 9.46797 33.1051 9.70422 32.8951C9.94422 32.6888 10.203 32.5276 10.4767 32.4038C10.7576 32.2782 11.0561 32.196 11.3617 32.1601C11.6767 32.1263 12.0067 32.1301 12.3892 32.2463C12.2205 32.6101 11.9992 32.8538 11.7592 33.0676C11.5259 33.2684 11.2643 33.4339 10.983 33.5588C10.7013 33.6816 10.4031 33.7624 10.098 33.7988C9.78672 33.8326 9.45672 33.8288 9.07422 33.7126Z" fill="#FFC107"/>
<path d="M12.5176 41.4977C12.6901 41.1377 12.9113 40.8902 13.1476 40.6802C13.3876 40.474 13.6463 40.3127 13.9201 40.189C14.201 40.0633 14.4994 39.9811 14.8051 39.9452C15.1201 39.9115 15.4501 39.9152 15.8326 40.0315C15.6638 40.3952 15.4426 40.639 15.2026 40.8527C14.9626 41.059 14.7038 41.2202 14.4301 41.344C14.1484 41.4667 13.8502 41.5476 13.5451 41.584C13.2301 41.6177 12.9001 41.614 12.5176 41.4977Z" fill="#FFC107"/>
<path d="M7.35352 29.82C7.52227 29.46 7.74727 29.2125 7.98352 29.0025C8.22352 28.7962 8.48227 28.635 8.75602 28.5112C9.03694 28.3856 9.33536 28.3034 9.64102 28.2675C9.95602 28.2337 10.2898 28.2375 10.6685 28.3537C10.4998 28.7175 10.2785 28.9612 10.0385 29.175C9.80516 29.3758 9.54363 29.5413 9.26227 29.6662C8.98055 29.789 8.68239 29.8698 8.37727 29.9062C8.06602 29.94 7.73602 29.9362 7.35352 29.82Z" fill="#FFC107"/>
<path d="M11.6582 39.5515C11.827 39.1914 12.052 38.9439 12.2882 38.7339C12.5282 38.5277 12.787 38.3664 13.0607 38.2427C13.3416 38.117 13.64 38.0348 13.9457 37.9989C14.2607 37.9652 14.5907 37.9689 14.9732 38.0852C14.8045 38.4489 14.5832 38.6927 14.3432 38.9064C14.1032 39.1127 13.8445 39.2739 13.5707 39.3977C13.289 39.5204 12.9908 39.6013 12.6857 39.6377C12.3707 39.6714 12.037 39.6677 11.6582 39.5515Z" fill="#FFC107"/>
<path d="M10.7969 37.6051C10.9656 37.2451 11.1906 36.9977 11.4269 36.7877C11.6669 36.5814 11.9256 36.4202 12.1994 36.2964C12.4803 36.1707 12.7787 36.0885 13.0844 36.0527C13.3994 36.0189 13.7294 36.0227 14.1119 36.1389C13.9431 36.5027 13.7219 36.7464 13.4819 36.9601C13.2419 37.1664 12.9831 37.3277 12.7094 37.4514C12.4277 37.5741 12.1295 37.655 11.8244 37.6914C11.5094 37.7251 11.1794 37.7214 10.7969 37.6051Z" fill="#FFC107"/>
<path d="M8.75189 22.4438L4.46939 24.3375C3.95189 24.5663 3.35189 24.3338 3.12314 23.8163C2.89439 23.2988 3.12689 22.6988 3.64439 22.47L7.92689 20.5763C8.44439 20.3475 9.04439 20.58 9.27314 21.0975C9.50189 21.6113 9.26939 22.215 8.75189 22.4438Z" fill="#FFA000"/>
<g opacity="0.81">
<path opacity="0.81" d="M10.7329 38.82L8.11914 32.9812L12.2741 30.21L15.4916 36.8737L10.7329 38.82Z" fill="url(#paint1_linear)"/>
</g>
<path d="M3.35156 24.1389C3.69281 24.5139 4.28156 24.4089 4.28156 24.4089L4.44656 24.7802L9.06656 22.7589L8.90531 22.3764C8.90531 22.3764 9.39281 22.0427 9.35156 21.3789L3.35156 24.1389Z" fill="url(#paint2_linear)"/>
<path d="M5.4375 45.3263V46.4438H44.9625V45.3263C44.9625 38.9475 34.9462 35.79 25.2 35.8013C15.5137 35.8125 5.4375 38.5688 5.4375 45.3263Z" fill="url(#paint3_linear)"/>
<path d="M8.19727 37.995C8.19727 41.5012 13.736 46.4437 13.736 46.4437H36.0335C36.0335 46.4437 41.1635 41.3662 41.1635 37.2262C41.1635 37.2262 35.4748 35.595 25.1998 35.8012C13.736 36.03 8.19727 37.995 8.19727 37.995Z" fill="#212121"/>
<path d="M26.981 36.9227C33.6485 36.9227 38.1185 37.7102 39.9335 38.104C39.4273 40.7402 36.8923 43.8827 35.5498 45.304H14.1748C12.4235 43.669 10.0198 40.8715 9.45727 38.809C11.4073 38.2802 16.616 37.114 25.2223 36.9415C25.811 36.9302 26.3998 36.9227 26.981 36.9227ZM26.981 35.7827C26.4035 35.7827 25.811 35.7865 25.1998 35.8015C13.7398 36.0302 8.19727 37.9952 8.19727 37.9952C8.19727 41.5015 13.736 46.444 13.736 46.444H36.0335C36.0335 46.444 41.1635 41.3665 41.1635 37.2265C41.1635 37.2265 36.1273 35.7827 26.981 35.7827Z" fill="url(#paint4_linear)"/>
<path d="M19.668 36.5627C19.668 35.4452 19.743 33.4802 21.0817 32.8539C22.008 32.4227 28.2292 32.6439 29.1892 33.1389C30.4042 33.7652 30.7305 35.5052 30.7305 36.5589C30.7305 38.4489 28.2555 44.1114 25.203 44.1114C22.1505 44.1114 19.668 38.4527 19.668 36.5627Z" fill="url(#paint5_linear)"/>
<path opacity="0.61" d="M20.0361 33.7427L19.7773 34.9802C19.7773 34.9802 21.7161 37.3239 25.1998 37.3239C29.2236 37.3239 30.5848 35.2839 30.5848 35.2839L30.2361 34.1252L20.0361 33.7427Z" fill="black"/>
<path d="M28.8183 46.4437C31.5895 43.4175 34.1658 39.8137 34.9345 36.2775L32.0245 35.5087C31.657 35.4112 31.282 35.6212 31.1695 35.9812C30.0858 39.4762 26.4033 43.4287 23.0508 46.4437H28.8183Z" fill="black"/>
<path d="M28.0456 46.4513C30.9406 43.3538 33.6931 39.6038 34.4919 35.9288L31.5819 35.1601C31.2144 35.0626 30.8394 35.2726 30.7269 35.6326C29.5981 39.2663 25.6606 43.3988 22.2031 46.4513H28.0456Z" fill="url(#paint6_linear)"/>
<g opacity="0.31">
<path opacity="0.31" d="M19.7402 35.8989C19.7402 35.8989 24.1877 42.5177 29.5727 46.2864C29.5727 46.2864 26.5465 46.6352 26.4602 46.4439C26.374 46.2527 19.9765 39.2552 19.9765 39.2552L19.7402 35.8989Z" fill="black"/>
</g>
<path d="M28.002 46.4439C24.6795 43.4701 20.9482 39.4689 19.7407 35.8989C19.5832 35.4302 19.0882 35.1714 18.6195 35.3252L15.7207 36.3039C16.5157 39.8851 19.152 43.4701 21.9607 46.4439H28.002Z" fill="url(#paint7_linear)"/>
<path d="M25.1997 3.52148C18.5847 3.52148 12.4609 10.594 12.4609 20.7752C12.4609 30.9002 18.7722 35.4865 25.1997 35.4865C31.6272 35.4865 37.9384 30.9002 37.9384 20.7752C37.9384 10.594 31.8147 3.52148 25.1997 3.52148Z" fill="#FFCA28"/>
<path d="M18.9533 23.606C19.9867 23.606 20.8245 22.738 20.8245 21.6673C20.8245 20.5965 19.9867 19.7285 18.9533 19.7285C17.9198 19.7285 17.082 20.5965 17.082 21.6673C17.082 22.738 17.9198 23.606 18.9533 23.606Z" fill="#404040"/>
<path d="M31.4474 23.606C32.4809 23.606 33.3187 22.738 33.3187 21.6673C33.3187 20.5965 32.4809 19.7285 31.4474 19.7285C30.414 19.7285 29.5762 20.5965 29.5762 21.6673C29.5762 22.738 30.414 23.606 31.4474 23.606Z" fill="#404040"/>
<path d="M21.7734 18.2473C21.4209 17.7823 20.6071 17.1035 19.0246 17.1035C17.4421 17.1035 16.6284 17.7823 16.2759 18.2473C16.1184 18.4535 16.1596 18.6935 16.2684 18.836C16.3696 18.971 16.6659 19.0948 16.9921 18.9823C17.3184 18.8698 17.9559 18.5398 19.0284 18.5323C20.0971 18.5398 20.7346 18.8698 21.0646 18.9823C21.3909 19.0948 21.6871 18.971 21.7884 18.836C21.8896 18.6935 21.9309 18.4535 21.7734 18.2473Z" fill="#6D4C41"/>
<path d="M34.1249 18.2473C33.7724 17.7823 32.9587 17.1035 31.3762 17.1035C29.7937 17.1035 28.9799 17.7823 28.6274 18.2473C28.4699 18.4535 28.5112 18.6935 28.6199 18.836C28.7212 18.971 29.0174 19.0948 29.3437 18.9823C29.6699 18.8698 30.3074 18.5398 31.3799 18.5323C32.4487 18.5398 33.0862 18.8698 33.4162 18.9823C33.7424 19.0948 34.0387 18.971 34.1399 18.836C34.2412 18.6935 34.2787 18.4535 34.1249 18.2473Z" fill="#6D4C41"/>
<path opacity="0.17" d="M25.1997 3.01855C18.1759 3.01855 12.4609 7.73605 12.4609 18.4573C12.4609 29.2386 17.9734 35.1336 25.1997 35.1336C32.4259 35.1336 38.5497 29.0998 38.5497 18.3148C38.5459 7.59355 32.2234 3.01855 25.1997 3.01855ZM25.1997 34.2336C20.4672 34.2336 14.2084 31.7961 14.2084 22.9723C14.2084 14.1973 19.4697 14.4373 25.1997 14.4373C30.9297 14.4373 36.1909 14.1973 36.1909 22.9723C36.1909 31.7961 29.9322 34.2336 25.1997 34.2336Z" fill="black"/>
<path d="M25.3384 22.8149C29.5197 22.8149 36.9972 26.8237 36.9972 26.8237C36.7684 30.6562 31.7772 35.0662 25.6047 34.9762C15.2472 34.8262 13.3984 27.1312 13.3984 27.1312C13.3984 27.1312 21.1572 22.8149 25.3384 22.8149Z" fill="url(#paint8_linear)"/>
<path opacity="0.4" d="M36.986 26.9776C36.986 26.9664 36.9898 26.9551 36.9898 26.9476C36.5923 26.7114 36.191 26.4639 35.786 26.2089C33.4948 25.0838 28.4848 22.8188 25.3423 22.8188C22.4473 22.8188 17.5648 24.9601 14.5648 26.5314C13.9648 26.9326 14.3098 26.9701 13.7285 27.3376C15.6935 26.6476 21.356 24.0901 25.256 24.0901C29.0848 24.0863 34.8898 26.3026 36.986 26.9776Z" fill="#BDBDBD"/>
<path d="M25.1992 1.5C17.868 1.5 10.668 6.8025 10.668 17.5275C10.668 28.3087 17.6542 35.8012 25.1955 35.8012C32.7367 35.8012 39.723 28.3087 39.723 17.5275C39.7267 6.8025 32.5305 1.5 25.1992 1.5ZM25.1992 34.9687C20.2567 34.9687 13.728 30.2775 13.728 21.4537C13.728 12.6787 19.218 12.9187 25.1992 12.9187C31.1805 12.9187 36.6705 12.6787 36.6705 21.4537C36.6705 30.2737 30.138 34.9687 25.1992 34.9687Z" fill="url(#paint9_linear)"/>
<path d="M25.6035 5.14501C25.6035 5.14501 20.1885 3.46126 15.246 8.78251C10.506 13.8863 11.9835 23.64 11.9835 23.64C11.9835 23.64 11.481 15.1388 17.076 9.81751C21.9698 5.16001 25.6035 5.14501 25.6035 5.14501Z" fill="url(#paint10_linear)"/>
<path d="M34.701 12.4273C37.8585 15.4948 37.9035 23.6698 37.9035 23.6698C37.9035 23.6698 40.2698 15.4385 35.9348 11.0023C32.3498 7.33103 27.3848 8.81603 27.3848 8.81603C27.3848 8.81603 31.3748 9.19478 34.701 12.4273Z" fill="url(#paint11_linear)"/>
<g opacity="0.38">
<path opacity="0.38" d="M25.1992 2.25C28.8367 2.25 32.208 3.5925 34.6867 6.02625C37.4955 8.7825 38.9767 12.7575 38.9767 17.5275C38.9767 22.1662 37.6192 26.4562 35.1442 29.6925C36.5242 27.5137 37.4205 24.7575 37.4205 21.4575C37.4205 17.4075 36.228 14.7787 33.7717 13.4137C31.7055 12.2662 29.0692 12.1725 26.088 12.1725H24.318C19.2667 12.1725 12.9817 12.1725 12.9817 21.4575C12.9817 24.7612 13.8742 27.5137 15.258 29.6925C12.783 26.4562 11.4255 22.1662 11.4255 17.5275C11.4255 12.7612 12.9105 8.7825 15.7155 6.02625C18.1905 3.5925 21.5617 2.25 25.1992 2.25ZM25.1992 1.5C17.868 1.5 10.668 6.8025 10.668 17.5275C10.668 28.3087 17.6542 35.8012 25.1955 35.8012C32.7367 35.8012 39.723 28.3087 39.723 17.5275C39.7267 6.8025 32.5305 1.5 25.1992 1.5ZM25.1992 12.9187H26.0842C31.4955 12.9187 36.6705 13.1325 36.6705 21.4537C36.6705 30.2737 29.9205 34.9687 25.1992 34.9687C20.478 34.9687 13.728 30.2737 13.728 21.4537C13.728 13.1325 18.903 12.9187 24.3142 12.9187H25.1992Z" fill="url(#paint12_linear)"/>
</g>
<defs>
<linearGradient id="paint0_linear" x1="7.28738" y1="25.4307" x2="12.6495" y2="36.9203" gradientUnits="userSpaceOnUse">
<stop stop-color="#646464"/>
<stop offset="1" stop-color="#444444"/>
</linearGradient>
<linearGradient id="paint1_linear" x1="13.4284" y1="38.8608" x2="10.5011" y2="31.7677" gradientUnits="userSpaceOnUse">
<stop/>
<stop offset="1" stop-opacity="0"/>
</linearGradient>
<linearGradient id="paint2_linear" x1="6.85631" y1="23.9833" x2="6.35231" y2="22.7619" gradientUnits="userSpaceOnUse">
<stop/>
<stop offset="1" stop-opacity="0"/>
</linearGradient>
<linearGradient id="paint3_linear" x1="25.1996" y1="47.0768" x2="25.1996" y2="42.1988" gradientUnits="userSpaceOnUse">
<stop offset="0.17" stop-color="#646464"/>
<stop offset="1" stop-color="#757575"/>
</linearGradient>
<linearGradient id="paint4_linear" x1="24.6796" y1="35.7835" x2="24.6796" y2="46.4432" gradientUnits="userSpaceOnUse">
<stop stop-color="#646464"/>
<stop offset="0.265" stop-color="#575757"/>
<stop offset="0.754" stop-color="#353535"/>
<stop offset="1" stop-color="#212121"/>
</linearGradient>
<linearGradient id="paint5_linear" x1="25.1988" y1="35.0413" x2="25.1988" y2="43.3397" gradientUnits="userSpaceOnUse">
<stop offset="0.074" stop-color="#444444"/>
<stop offset="0.653" stop-color="#212121"/>
</linearGradient>
<linearGradient id="paint6_linear" x1="31.9606" y1="36.4317" x2="27.8101" y2="42.8735" gradientUnits="userSpaceOnUse">
<stop stop-color="#646464"/>
<stop offset="1" stop-color="#444444"/>
</linearGradient>
<linearGradient id="paint7_linear" x1="22.1655" y1="42.7738" x2="16.0575" y2="34.0029" gradientUnits="userSpaceOnUse">
<stop stop-color="#646464"/>
<stop offset="1" stop-color="#9E9E9E"/>
</linearGradient>
<linearGradient id="paint8_linear" x1="25.1989" y1="26.6797" x2="25.1989" y2="35.7648" gradientUnits="userSpaceOnUse">
<stop offset="0.074" stop-color="#444444"/>
<stop offset="0.653" stop-color="#212121"/>
</linearGradient>
<linearGradient id="paint9_linear" x1="25.1985" y1="1.692" x2="25.1985" y2="35.4007" gradientUnits="userSpaceOnUse">
<stop offset="0.074" stop-color="#444444"/>
<stop offset="0.653" stop-color="#212121"/>
</linearGradient>
<linearGradient id="paint10_linear" x1="13.7951" y1="15.9713" x2="21.9034" y2="5.96288" gradientUnits="userSpaceOnUse">
<stop stop-color="#0D0C0C"/>
<stop offset="1" stop-color="#0D0C0C" stop-opacity="0"/>
</linearGradient>
<linearGradient id="paint11_linear" x1="35.718" y1="15.902" x2="30.1436" y2="9.31403" gradientUnits="userSpaceOnUse">
<stop stop-color="#0D0C0C"/>
<stop offset="1" stop-color="#0D0C0C" stop-opacity="0"/>
</linearGradient>
<linearGradient id="paint12_linear" x1="25.1985" y1="1.5" x2="25.1985" y2="35.8012" gradientUnits="userSpaceOnUse">
<stop stop-color="#BDBDBD"/>
<stop offset="1" stop-color="#646464"/>
</linearGradient>
</defs>
</svg>
