<svg xmlns="http://www.w3.org/2000/svg" width="20" height="20" viewBox="0 0 8.467 8.467"><g><path fill="#005522" d="M2.844 2.117V6.35h4.137a.691.691 0 0 0 .692-.691v-2.85a.691.691 0 0 0-.692-.692z" data-original="#005522" class=""></path><g fill="#f2f2f2"><path d="M4.79 2.772A1.586 1.586 0 0 0 3.753 4.26 1.586 1.586 0 0 0 5.34 5.846a1.586 1.586 0 0 0 1.357-.767 1.5 1.5 0 0 1-1.012.394 1.5 1.5 0 0 1-1.5-1.5 1.5 1.5 0 0 1 .605-1.2zM6.697 3.807l-.405-.022-.136.382-.104-.392-.405-.012.34-.22-.114-.389.315.256.334-.228-.146.378zM1.485 2.117a.691.691 0 0 0-.691.691v2.85a.691.691 0 0 0 .691.692h1.36V2.117z" fill="#f2f2f2" data-original="#f2f2f2" class=""></path></g></g></svg>