<svg width="112" height="84" viewBox="0 0 112 84" fill="none" xmlns="http://www.w3.org/2000/svg">
<path d="M96.3737 48.3499C92.4773 48.3701 89.0906 49.3085 86.2552 50.6958C85.2144 48.6352 84.174 46.7994 83.9907 45.4528C83.7864 43.8822 83.5418 42.9232 83.7864 41.0463C84.0314 39.1694 85.133 36.4968 85.1124 36.2929C85.0923 36.089 84.8674 35.13 82.6235 35.1099C80.3796 35.0893 78.4414 35.5382 78.217 36.1297C77.9926 36.7212 77.5642 38.0678 77.2786 39.4547C76.8909 41.4952 72.7907 48.7778 70.4448 52.5928C69.6897 51.104 69.0369 49.7981 68.8939 48.7577C68.69 47.1871 68.445 46.2281 68.69 44.3512C68.935 42.4743 70.0366 39.8021 70.0161 39.5978C69.9955 39.3939 69.7711 38.4349 67.5271 38.4148C65.2827 38.3942 63.3446 38.8431 63.1206 39.4346C62.8962 40.0265 62.6512 41.4134 62.1822 42.76C61.7127 44.1066 56.2659 56.2656 54.8379 59.4069C54.2608 60.6783 53.6554 61.9367 53.0223 63.1812C53.0223 63.1812 53.0017 63.2424 52.9404 63.3444C52.7415 63.7346 52.5376 64.1222 52.3288 64.5072V64.5274C52.0226 65.0786 51.6962 65.5883 51.533 65.5883C51.4105 65.5883 51.1861 64.1196 51.5737 62.1202C52.3896 57.8975 54.3277 51.3284 54.3076 51.104C54.3076 50.9815 54.6747 49.8392 53.0428 49.2473C51.4512 48.6558 50.8802 49.6349 50.7372 49.6349C50.5946 49.6349 50.4922 49.9818 50.4922 49.9818C50.4922 49.9818 52.2676 42.5968 47.1059 42.5968C43.8829 42.5968 39.4352 46.1261 37.232 49.3085C34.7274 50.6715 32.2249 52.0384 29.7245 53.4092C28.5214 54.0825 27.2767 54.7558 26.1138 55.388C26.032 55.3066 25.9506 55.2043 25.8688 55.1229C19.6261 48.4519 8.07962 43.7391 8.56919 34.7835C8.75294 31.5193 9.87469 22.9509 30.7448 12.5467C47.9219 4.08019 61.5907 6.42606 63.9571 11.6284C67.3434 19.0545 56.6334 32.8454 38.8844 34.8443C32.1115 35.5994 28.5616 32.988 27.6643 32.0089C26.7259 30.9886 26.5828 30.9274 26.2359 31.1317C25.6649 31.4379 26.032 32.3558 26.2359 32.8861C26.7666 34.2729 28.9493 36.7212 32.6418 37.9252C35.9059 38.9857 43.8417 39.5776 53.4506 35.8646C64.2017 31.7026 72.6069 20.1356 70.1386 10.4454C67.6698 0.612125 51.3493 -2.6315 35.9059 2.85606C26.7259 6.12069 16.7701 11.2613 9.60956 17.9529C1.10237 25.9088 -0.244251 32.8248 0.306561 35.7219C2.28581 46.0036 16.4643 52.6952 22.1356 57.6525C21.8499 57.8157 21.5844 57.9588 21.3604 58.0812C18.5245 59.4887 7.71212 65.1394 5.01931 71.117C1.95944 77.8899 5.50931 82.7457 7.85519 83.3981C15.1382 85.418 22.6252 81.7868 26.6441 75.7886C30.6629 69.7909 30.1734 61.9977 28.3171 58.4277C28.2965 58.3871 28.2764 58.3459 28.2353 58.3052C28.9698 57.8769 29.7245 57.4281 30.4591 56.9997C31.8091 56.2017 33.1763 55.4329 34.5597 54.6941C33.8659 56.5916 33.3558 58.8561 33.1112 62.1202C32.8049 65.9558 34.3756 70.9332 36.4362 72.8915C37.3545 73.749 38.4356 73.7691 39.1294 73.7691C41.5366 73.7691 42.6181 71.7698 43.8216 69.4033C45.2903 66.5066 46.6164 63.1405 46.6164 63.1405C46.6164 63.1405 44.9639 72.2392 49.4522 72.2392C51.0841 72.2392 52.7366 70.1173 53.4711 69.0362V69.0564C53.4711 69.0564 53.5118 68.9951 53.5936 68.8525C53.7568 68.5874 53.8587 68.4238 53.8587 68.4238V68.3835C54.5115 67.2407 55.9806 64.6499 58.1633 60.3453C60.9786 54.7965 63.692 47.8604 63.692 47.8604C63.692 47.8604 63.937 49.5535 64.7731 52.3688C65.2631 54.0213 66.2824 55.8369 67.0988 57.5912C66.4461 58.5096 66.0379 59.0192 66.0379 59.0192L66.0584 59.0398C65.5277 59.7332 64.9568 60.4879 64.3242 61.2229C62.1004 63.8746 59.4487 66.9148 59.0812 67.7916C58.6524 68.8319 58.7548 69.5871 59.5712 70.1991C60.1627 70.648 61.2232 70.7088 62.3047 70.648C64.3041 70.5049 65.7115 70.0154 66.4049 69.7096C67.4864 69.3219 68.7513 68.73 69.9342 67.8528C72.1174 66.2411 73.443 63.9359 73.3209 60.8966C73.2597 59.2236 72.7089 57.5506 72.0356 55.9795C72.2399 55.6943 72.4232 55.4086 72.6275 55.1229C76.075 50.0838 78.7477 44.5551 78.7477 44.5551C78.7477 44.5551 78.9927 46.2482 79.8288 49.0639C80.2369 50.4919 81.0734 52.0424 81.8076 53.5518C78.5639 56.1838 76.5646 59.2437 75.8506 61.2431C74.5656 64.9561 75.5649 66.6287 77.4623 67.0163C78.3189 67.2001 79.5431 66.7919 80.4408 66.4043C81.5831 66.0372 82.9297 65.405 84.2151 64.4661C86.3983 62.8548 88.4991 60.6104 88.3766 57.5711C88.3154 56.1838 87.9483 54.8166 87.4382 53.4906C90.1922 52.3487 93.7421 51.7161 98.2707 52.2463C107.982 53.3886 109.899 59.4476 109.532 61.9982C109.165 64.5479 107.125 65.9352 106.452 66.3636C105.778 66.7923 105.554 66.9349 105.615 67.2407C105.697 67.6896 106.023 67.6695 106.595 67.5877C107.39 67.4451 111.695 65.5271 111.878 60.8349C112.185 54.8372 106.472 48.2887 96.3737 48.3499ZM21.4623 73.6059C18.2388 77.1147 13.7509 78.4408 11.8128 77.319C9.73206 76.115 10.548 70.9333 14.5056 67.2206C16.9127 64.9561 20.0137 62.8544 22.0744 61.5694C22.5434 61.2837 23.2372 60.876 24.0737 60.3659C24.2164 60.2841 24.2982 60.2434 24.2982 60.2434L24.7877 59.9371C26.2359 65.2414 24.849 69.9134 21.4623 73.6059ZM44.9232 57.6525C43.8011 60.3864 41.4552 67.3838 40.0272 66.9962C38.8031 66.6698 38.0479 61.3656 39.7822 56.1226C40.6594 53.4906 42.5157 50.3489 43.5972 49.1252C45.3516 47.1665 47.2897 46.5133 47.7587 47.3096C48.3506 48.3499 45.6167 55.9388 44.9232 57.6525ZM64.2835 66.9144C63.8141 67.1594 63.3656 67.3226 63.1613 67.2001C63.0187 67.1182 63.3656 66.7919 63.3656 66.7919C63.3656 66.7919 65.7933 64.1809 66.7519 62.9974C67.3031 62.304 67.9554 61.4881 68.6493 60.5698V60.8349C68.6493 63.9564 65.6297 66.0578 64.2831 66.9144H64.2835ZM79.2167 63.5076C78.8698 63.2626 78.931 62.4466 80.0939 59.8964C80.5428 58.8968 81.6032 57.2242 83.4193 55.6124C83.6232 56.2652 83.7663 56.8978 83.7457 57.4893C83.7251 61.4268 80.9102 62.8955 79.2167 63.5076Z" fill="#CD6799"/>
</svg>
