<svg width="25" height="25" viewBox="0 0 25 25" fill="none" xmlns="http://www.w3.org/2000/svg">
<path d="M19.7762 22.776V16.1052H21.9991V25H1.91992V16.1052H4.13867V22.776H19.7762ZM6.36471 20.5531H17.5512V18.3271H6.36471V20.5531ZM6.63451 15.499L17.5512 17.7792L18.021 15.6229L7.10638 13.3448L6.63451 15.499ZM8.05013 10.2323L18.1595 14.951L19.1001 12.9198L8.98971 8.20104L8.05013 10.2177V10.2323ZM10.8783 5.24792L19.4376 12.3885L20.8533 10.701L12.2949 3.5625L10.8887 5.24687L10.8783 5.24792ZM16.4064 0L14.5876 1.34792L21.2595 10.3104L23.0783 8.9625L16.4043 0H16.4064Z" fill="#E5E5E5"/>
</svg>
